<?xml version="1.0" encoding="UTF-8"?>
<!DOCTYPE svg PUBLIC "-//W3C//DTD SVG 1.1//EN" "http://www.w3.org/Graphics/SVG/1.1/DTD/svg11.dtd">
<svg xmlns="http://www.w3.org/2000/svg" version="1.1" width="24px" height="24px" style="shape-rendering:geometricPrecision; text-rendering:geometricPrecision; image-rendering:optimizeQuality; fill-rule:evenodd; clip-rule:evenodd" xmlns:xlink="http://www.w3.org/1999/xlink">
<g><path style="opacity:0.727" fill="#000000" d="M 6.5,-0.5 C 9.83333,-0.5 13.1667,-0.5 16.5,-0.5C 19.1667,1.5 21.5,3.83333 23.5,6.5C 23.5,10.1667 23.5,13.8333 23.5,17.5C 21.8333,19.8333 19.8333,21.8333 17.5,23.5C 13.8333,23.5 10.1667,23.5 6.5,23.5C 3.83333,21.5 1.5,19.1667 -0.5,16.5C -0.5,13.1667 -0.5,9.83333 -0.5,6.5C 1.5,3.83333 3.83333,1.5 6.5,-0.5 Z M 18.5,16.5 C 18.3155,13.8269 17.1489,13.1602 15,14.5C 14.321,11.4501 13.4877,8.45009 12.5,5.5C 10.9547,4.54811 9.28801,4.21478 7.5,4.5C 7.62606,6.19981 8.29272,7.69981 9.5,9C 8.38468,11.6156 7.05135,14.1156 5.5,16.5C 5.86273,17.1835 6.19607,17.8501 6.5,18.5C 3.5592,17.1975 2.22586,14.8641 2.5,11.5C 3.73487,4.11735 8.0682,1.28402 15.5,3C 20.7667,6.70955 21.7667,11.2096 18.5,16.5 Z M 18.5,16.5 C 18.0629,18.0744 17.0629,19.2411 15.5,20C 12.8333,20.6667 10.1667,20.6667 7.5,20C 6.94404,19.6174 6.61071,19.1174 6.5,18.5C 8.88813,17.7813 10.3881,16.1146 11,13.5C 12.0086,15.0249 12.5086,16.6916 12.5,18.5C 14.7028,18.3964 16.7028,17.7298 18.5,16.5 Z"/></g>
<g><path style="opacity:0.67" fill="#000000" d="M 18.5,16.5 C 16.7028,17.7298 14.7028,18.3964 12.5,18.5C 12.5086,16.6916 12.0086,15.0249 11,13.5C 10.3881,16.1146 8.88813,17.7813 6.5,18.5C 6.19607,17.8501 5.86273,17.1835 5.5,16.5C 7.05135,14.1156 8.38468,11.6156 9.5,9C 8.29272,7.69981 7.62606,6.19981 7.5,4.5C 9.28801,4.21478 10.9547,4.54811 12.5,5.5C 13.4877,8.45009 14.321,11.4501 15,14.5C 17.1489,13.1602 18.3155,13.8269 18.5,16.5 Z"/></g>
</svg>
